<?xml version="1.0" encoding="utf-8"?>
<!-- Generator: Adobe Illustrator 17.0.0, SVG Export Plug-In . SVG Version: 6.00 Build 0)  -->
<!DOCTYPE svg PUBLIC "-//W3C//DTD SVG 1.1//EN" "http://www.w3.org/Graphics/SVG/1.1/DTD/svg11.dtd">
<svg version="1.1" id="Layer_1" xmlns="http://www.w3.org/2000/svg" xmlns:xlink="http://www.w3.org/1999/xlink" x="0px" y="0px"
	 width="130.197px" height="36.87px" viewBox="0 0 130.197 36.87" enable-background="new 0 0 130.197 36.87" xml:space="preserve">
<path fill="#FFFFFF" d="M17.974,10.646c0,4.425-1.382,9.126-6.728,9.126c-2.443,0-4.471-1.383-5.807-3.365
	c-1.199-1.797-1.567-4.194-1.567-6.314c0-4.424,1.659-9.079,6.867-9.079c2.488,0,4.424,1.383,5.761,3.457
	C17.606,6.222,17.974,8.572,17.974,10.646 M81.851,10.646c0,4.471-1.428,9.172-6.728,9.172c-2.489,0-4.517-1.383-5.853-3.411
	c-1.153-1.797-1.521-4.194-1.521-6.314c0-4.378,1.659-9.079,6.821-9.079c2.534,0,4.47,1.383,5.807,3.457
	C81.483,6.222,81.851,8.572,81.851,10.646 M126.326,10.739c0,4.701-2.673,8.434-7.651,8.434c-2.442,0-3.41-0.6-3.41-3.042V1.89
	c0.461-0.138,0.968-0.185,1.382-0.185C122.178,1.705,126.326,4.932,126.326,10.739 M11.661,29.312v-0.507H7.559v0.138v0.369
	c0.921,0,1.475,0.507,1.475,1.475c0,1.152-0.185,2.627-0.461,3.779c-0.231,0.921-1.06,1.244-1.936,1.244
	c-1.014,0-1.89-0.507-1.982-1.613c-0.23-1.797-0.322-3.641-0.368-5.438c-1.06,0.046-2.167,0.046-3.227,0.046v0.092v0.507h0.553
	c0.876,0.092,1.014,1.106,1.107,1.797c0.138,0.968,0.184,1.982,0.276,2.95c0.277,2.12,1.613,2.489,3.595,2.489
	C11.707,36.64,7.927,29.312,11.661,29.312 M21.708,29.266v-0.092v-0.369c-1.383,0.046-2.766,0.046-4.102,0v0.138v0.369
	c1.336,0.046,1.843,0.184,1.889,1.613c0.046,0.507,0.093,1.014,0.093,1.521s-0.047,0.968-0.047,1.475
	c-1.06-1.153-4.055-4.01-4.654-5.116h-2.673v0.138v0.323c0.829,0.184,1.152,0.322,1.705,0.968c0,0.138,0.046,0.322,0.046,0.46v1.06
	c0,0.876-0.046,1.752-0.092,2.627c-0.046,1.106-0.323,1.383-1.475,1.521v0.139v0.368h4.286v-0.138v-0.369
	c-1.429-0.092-1.89-0.184-1.936-1.751v-1.844v-1.198c1.66,1.798,3.457,3.457,5.07,5.3h0.046h0.461c0-0.599-0.138-6.268,0.323-6.729
	C20.924,29.404,21.385,29.312,21.708,29.266 M27.468,36.409v-0.138v-0.369c-1.336-0.138-1.474-0.322-1.52-1.659
	c-0.047-0.369-0.047-0.691-0.047-1.014v-1.521c0-1.613-0.184-2.166,1.567-2.442v-0.092v-0.369h-4.562v0.138v0.323
	c0.276,0.046,0.922,0.184,1.152,0.368c0.461,0.369,0.369,2.397,0.369,3.042c0,0.553,0,1.152-0.046,1.705
	c-0.046,1.291-0.231,1.337-1.475,1.521v0.139v0.368C22.906,36.409,27.468,36.409,27.468,36.409z M36.962,29.266v-0.092v-0.369h-3.64
	v0.138v0.323c0.322,0.092,1.29,0.23,1.29,0.645c0,0.645-1.475,3.825-1.705,4.424c-0.323-0.599-1.844-3.871-1.844-4.47
	c0-0.415,0.876-0.553,1.152-0.599v-0.092v-0.369h-4.286v0.138v0.323c0.922,0.138,1.199,0.368,1.567,1.198l2.812,6.406H32.4h0.138
	c0.461-1.06,2.811-6.59,3.457-7.19C36.225,29.45,36.64,29.358,36.962,29.266 M21.846,10.508C21.846,4.01,17.283,0,10.923,0
	C4.747,0,0,3.964,0,10.324c0,6.406,4.655,10.508,10.923,10.508C17.007,20.832,21.846,16.822,21.846,10.508 M44.705,33.552
	l-0.461-0.092c-0.368,1.198-0.968,2.304-2.35,2.304c-1.245,0-1.245-0.415-1.245-1.475l-0.046-1.336h1.06
	c0.968,0,1.014,0.276,1.106,1.198h0.093h0.368c0-1.014,0.046-2.028,0.046-2.996v-0.138h-0.138h-0.322
	c-0.047,0.138-0.185,0.783-0.323,0.876c-0.277,0.184-1.567,0.138-1.89,0.138l0.046-2.581h0.185c0.645,0,1.843,0,2.304,0.415
	c0.369,0.276,0.369,0.783,0.461,1.198h0.092h0.369l0.092-2.258h-6.544v0.138v0.369c1.198,0.092,1.474,0.276,1.521,1.475v1.244v1.014
	v1.336c-0.047,1.291-0.231,1.337-1.521,1.521v0.139v0.368h6.406C44.336,35.441,44.567,34.566,44.705,33.552 M54.752,36.455v-0.138
	v-0.323c-1.521-0.276-2.903-2.073-3.595-3.41c0.83-0.323,1.475-0.83,1.475-1.797c0-1.752-2.028-2.028-3.364-2.028
	c-1.106,0-2.212,0.046-3.319,0.046v0.138v0.323c1.245,0.184,1.475,0.276,1.521,1.567V32.4v1.06c0,1.567,0.277,2.212-1.474,2.442
	v0.139v0.368h4.654v-0.138v-0.369c-2.074-0.184-1.705-1.014-1.705-2.811v-3.779c0.922,0.092,1.982,0.461,1.982,1.567
	s-0.738,1.29-1.613,1.521c0.783,1.382,1.797,3.548,3.502,3.917c0.6,0.138,1.199,0.138,1.798,0.138
	C54.614,36.455,54.752,36.455,54.752,36.455z M60.882,34.289c0-2.489-3.687-2.12-3.687-3.917c0-0.599,0.461-1.106,1.06-1.106
	c1.106,0,1.382,1.152,1.613,2.028h0.092h0.369l0.092-2.12c-0.599-0.323-1.245-0.554-1.936-0.554c-1.336,0-2.765,0.784-2.765,2.305
	c0,2.442,3.595,2.028,3.595,3.825c0,0.691-0.507,1.198-1.199,1.198c-1.336,0-1.797-1.474-1.981-2.581h-0.461v2.581
	c0.599,0.277,1.659,0.646,2.304,0.646C59.407,36.594,60.882,35.902,60.882,34.289 M66.781,36.409v-0.138v-0.369
	c-1.337-0.138-1.475-0.322-1.521-1.659c0-0.369-0.046-0.691-0.046-1.014v-1.521c0-1.613-0.138-2.166,1.567-2.442v-0.092v-0.369
	h-4.563v0.138v0.323c0.323,0.046,0.968,0.184,1.199,0.368c0.46,0.369,0.322,2.397,0.322,3.042v1.705
	c-0.046,1.291-0.276,1.337-1.521,1.521v0.139v0.368C62.218,36.409,66.781,36.409,66.781,36.409z M62.218,5.024l-0.322-4.379H46.825
	v0.139v0.599c2.811,0.415,3.411,0.783,3.411,3.595v10.508c0,3.594-3.042,3.779-5.946,3.779c-2.535,0-4.055-1.936-5.3-3.872
	l-4.055-6.314c0.737-1.106,1.428-2.166,2.12-3.272c1.751-2.627,2.995-4.055,6.314-4.286V1.429V0.692h-8.25v0.829
	c0.737,0.138,2.074,0.184,2.074,1.198c0,1.153-2.212,4.333-2.904,5.393l-4.793-7.42h-6.498V0.83v0.737
	c2.811,0.046,4.563,1.982,5.945,4.24l3.088,5.116l-2.857,4.056c-1.844,2.719-2.858,4.101-6.36,4.286v0.138v0.737h8.572l0.046-0.691
	c-0.737-0.276-2.166-0.599-2.166-1.613c0-1.152,2.719-4.839,3.549-5.853l5.207,8.157h19.173v-0.138v-0.599
	c-3.272-0.599-3.687-0.415-3.687-3.825v-4.747c3.088,0,4.701-0.599,4.885,3.042h0.138h0.553V9.079
	c-1.152,0.185-2.35,0.185-3.548,0.185h-2.028V1.798h1.751c2.627,0,5.715-0.139,6.13,3.226H62.218z M75.307,31.386
	c-0.046-0.692-0.138-1.429-0.138-2.166c0-0.139,0.046-0.277,0.046-0.415c-0.784,0.092-1.613,0.092-2.443,0.092
	c-0.783,0-1.521,0.046-2.304,0.046c-0.83,0-1.613-0.092-2.397-0.138c-0.046,0.829-0.092,1.705-0.184,2.581l0.507,0.046
	c0.323-1.936,0.645-1.798,2.443-1.798c0.046,1.014,0.046,1.982,0.046,2.996c0,0.599,0,1.152-0.046,1.751
	c-0.046,1.291-0.323,1.337-1.567,1.521v0.139v0.368h4.7v-0.138v-0.369c-1.843-0.23-1.613-0.737-1.613-2.488V32.4v-2.766
	c1.752,0.046,2.12-0.092,2.489,1.752h0.092C74.938,31.386,75.307,31.386,75.307,31.386z M84.386,29.266v-0.092v-0.369h-3.272v0.138
	v0.323c0.277,0.046,0.737,0.138,0.737,0.507c0,0.553-0.921,2.258-1.152,2.719c-0.322-0.507-1.613-2.305-1.613-2.719
	c0-0.369,0.599-0.415,0.876-0.507v-0.092v-0.369h-4.01v0.138v0.369c0.277,0,0.692,0.092,0.968,0.276
	c0.691,0.369,2.304,3.226,2.673,3.918c0,1.659,0.231,2.212-1.613,2.396v0.139v0.368h4.793v-0.138v-0.369
	c-1.889-0.184-1.659-0.783-1.659-2.488c0-0.507,1.751-3.411,2.258-3.78C83.649,29.404,84.018,29.358,84.386,29.266 M97.06,30.971
	c0-1.797-2.488-2.212-3.871-2.212c-1.06,0-2.166,0.046-3.272,0.092v0.092v0.369c0.368,0.046,0.875,0.138,1.152,0.322
	c0.507,0.415,0.369,2.535,0.369,3.273c0,0.507,0.046,2.212-0.231,2.58c-0.23,0.277-0.968,0.369-1.29,0.415v0.139v0.368h4.747v-0.138
	v-0.369c-1.475-0.092-1.659-0.23-1.706-1.659c0-0.507-0.046-1.014-0.046-1.521v-3.364c1.153,0.046,2.443,0.507,2.443,1.843
	c0,1.383-0.599,1.521-1.751,1.706v0.507C95.217,33.321,97.06,32.999,97.06,30.971 M85.723,10.554C85.723,4.056,81.16,0,74.8,0
	c-6.176,0-10.923,4.01-10.923,10.37s4.655,10.462,10.877,10.462C80.838,20.832,85.723,16.822,85.723,10.554 M106.923,36.455v-0.138
	v-0.323c-1.521-0.276-2.904-2.073-3.549-3.41c0.784-0.323,1.475-0.83,1.475-1.797c0-1.752-2.028-2.028-3.364-2.028
	c-1.106,0-2.213,0.046-3.319,0.046v0.138v0.323c1.199,0.184,1.475,0.276,1.475,1.567c0,0.553,0.046,1.06,0.046,1.613v1.014
	c0,1.567,0.231,2.212-1.475,2.442v0.139v0.368h4.655v-0.138v-0.369c-2.074-0.184-1.705-1.014-1.705-2.811v-3.779
	c0.922,0.092,1.936,0.461,1.936,1.567s-0.692,1.29-1.567,1.521c0.783,1.382,1.751,3.548,3.456,3.917
	c0.599,0.138,1.199,0.138,1.844,0.138C106.831,36.455,106.923,36.455,106.923,36.455z M114.573,33.552l-0.46-0.092
	c-0.369,1.198-0.968,2.304-2.397,2.304c-1.244,0-1.198-0.415-1.244-1.475v-1.336h1.06c0.967,0,0.967,0.276,1.06,1.198h0.138h0.369
	v-2.996v-0.138h-0.093h-0.368c-0.046,0.138-0.185,0.783-0.323,0.876c-0.23,0.184-1.521,0.138-1.843,0.138l0.046-2.581h0.184
	c0.599,0,1.844,0,2.304,0.415c0.323,0.276,0.369,0.783,0.415,1.198h0.138h0.369l0.046-2.258h-6.498v0.138v0.369
	c1.198,0.092,1.429,0.276,1.475,1.475c0.046,0.414,0.046,0.829,0.046,1.244v1.014c0,0.415,0,0.876-0.046,1.336
	c-0.046,1.291-0.231,1.337-1.475,1.521v0.139v0.368h6.406c0.092-0.322,0.231-0.599,0.277-0.922
	C114.343,34.888,114.435,34.197,114.573,33.552 M121.394,34.289c0-2.489-3.687-2.12-3.687-3.917c0-0.599,0.461-1.106,1.06-1.106
	c1.106,0,1.383,1.152,1.613,2.028h0.093h0.368l0.092-2.12c-0.599-0.323-1.244-0.554-1.935-0.554c-1.337,0-2.765,0.784-2.765,2.305
	c0,2.442,3.594,2.028,3.594,3.825c0,0.691-0.507,1.198-1.198,1.198c-1.336,0-1.797-1.474-1.982-2.581h-0.46v2.581
	c0.599,0.277,1.659,0.646,2.304,0.646C119.92,36.594,121.394,35.902,121.394,34.289 M128.261,34.289c0-2.489-3.687-2.12-3.687-3.917
	c0-0.599,0.507-1.106,1.106-1.106c1.107,0,1.383,1.152,1.567,2.028h0.093h0.368l0.139-2.12c-0.646-0.323-1.245-0.554-1.982-0.554
	c-1.337,0-2.765,0.784-2.765,2.305c0,2.442,3.64,2.028,3.64,3.825c0,0.691-0.507,1.198-1.244,1.198
	c-1.336,0-1.751-1.474-1.936-2.581h-0.46v2.581c0.599,0.277,1.613,0.646,2.304,0.646C126.833,36.594,128.261,35.902,128.261,34.289
	 M130.197,10.416c0-7.927-6.821-9.724-13.504-9.724c-2.673,0-5.346,0.046-8.019,0.092v0.092v0.645
	c2.996,0.461,3.503,1.106,3.503,4.056v9.77c0,2.719-0.784,3.918-3.595,3.918c-2.95,0-8.48-6.637-10.231-8.711
	c2.442-0.691,4.747-2.488,4.747-5.208c0-4.101-4.932-4.654-8.02-4.654c-2.442,0-4.885,0.092-7.373,0.138v0.829
	c0.553,0,1.474-0.046,1.889,0.323c0.645,0.553,0.645,2.443,0.645,3.18c0,4.977-0.138,9.955-0.184,14.978h7.19v-0.875
	c-2.812-0.369-3.78-0.277-3.78-3.226c0-4.793,0.093-9.54,0.139-14.334h0.046c2.627,0,5.761,1.153,5.761,4.287
	c0,2.304-3.042,4.286-5.162,4.286c2.627,3.456,4.286,6.037,7.973,8.342c2.166,1.336,3.134,1.474,5.623,1.52
	c0.23,0,0.599,0.047,0.829,0h0.046h0.046h0.139l10.415-0.046c2.996,0,6.038-1.244,8.112-3.364
	C129.137,15.025,130.197,12.813,130.197,10.416"/>
</svg>
