<?xml version="1.0" encoding="utf-8"?>
<!-- Generator: Adobe Illustrator 17.0.0, SVG Export Plug-In . SVG Version: 6.00 Build 0)  -->
<!DOCTYPE svg PUBLIC "-//W3C//DTD SVG 1.1//EN" "http://www.w3.org/Graphics/SVG/1.1/DTD/svg11.dtd">
<svg version="1.1" id="Layer_1" xmlns="http://www.w3.org/2000/svg" xmlns:xlink="http://www.w3.org/1999/xlink" x="0px" y="0px"
	 width="26.039px" height="21.181px" viewBox="0 0 26.039 21.181" enable-background="new 0 0 26.039 21.181" xml:space="preserve">
<path fill="#0077A8" d="M2.73,8.581c0.579,1.08,0.87,1.839,0.87,2.28C3.6,12.5,2.4,14.92,0,18.12l3.839,3.061
	c5.48-5.961,8.22-11.16,8.22-15.601c0-1.801-0.45-3.18-1.35-4.141C9.81,0.481,8.601,0,7.08,0C5.56,0,4.31,0.49,3.329,1.47
	s-1.47,2.269-1.47,3.87C1.859,6.421,2.149,7.501,2.73,8.581L2.73,8.581z M16.71,8.581c0.579,1.08,0.87,1.839,0.87,2.28
	c0,1.639-1.2,4.059-3.6,7.259l3.78,3.061c5.52-5.921,8.28-11.12,8.28-15.601c0-1.801-0.459-3.18-1.38-4.141
	C23.74,0.481,22.52,0,20.999,0c-1.48,0-2.709,0.49-3.69,1.47c-0.979,0.98-1.47,2.269-1.47,3.87
	C15.839,6.421,16.131,7.501,16.71,8.581L16.71,8.581z"/>
</svg>
