<?xml version="1.0" encoding="utf-8"?>
<!-- Generator: Adobe Illustrator 17.0.0, SVG Export Plug-In . SVG Version: 6.00 Build 0)  -->
<!DOCTYPE svg PUBLIC "-//W3C//DTD SVG 1.1//EN" "http://www.w3.org/Graphics/SVG/1.1/DTD/svg11.dtd">
<svg version="1.1" id="Layer_1" xmlns="http://www.w3.org/2000/svg" xmlns:xlink="http://www.w3.org/1999/xlink" x="0px" y="0px"
	 width="26.039px" height="21.181px" viewBox="0 0 26.039 21.181" enable-background="new 0 0 26.039 21.181" xml:space="preserve">
<path fill="#0077A8" d="M23.309,12.6c-0.579-1.08-0.87-1.839-0.87-2.28c0-1.639,1.2-4.059,3.6-7.259L22.199,0
	c-5.48,5.961-8.22,11.16-8.22,15.601c0,1.801,0.45,3.18,1.35,4.141c0.899,0.959,2.108,1.44,3.629,1.44c1.519,0,2.77-0.49,3.75-1.47
	s1.47-2.269,1.47-3.87C24.18,14.76,23.889,13.68,23.309,12.6L23.309,12.6z M9.329,12.6c-0.579-1.08-0.87-1.839-0.87-2.28
	c0-1.639,1.2-4.059,3.6-7.259L8.28,0C2.759,5.921,0,11.12,0,15.601c0,1.801,0.459,3.18,1.38,4.141c0.919,0.959,2.139,1.44,3.66,1.44
	c1.48,0,2.709-0.49,3.69-1.47c0.979-0.98,1.47-2.269,1.47-3.87C10.2,14.76,9.908,13.68,9.329,12.6L9.329,12.6z"/>
</svg>
