<svg version="1.1" id="Layer_1" xmlns="http://www.w3.org/2000/svg" xmlns:xlink="http://www.w3.org/1999/xlink" x="0px" y="0px"
	 viewBox="0 0 16 16" enable-background="new 0 0 16 16" xml:space="preserve">
<path d="M8.6,7.2C8.6,7.2,8.6,7.2,8.6,7.2L8.6,7.2L8.6,7.2L8.6,7.2z M14.6,16H1.4c-0.6,0-1.1-0.5-1.1-1.1V1.1C0.3,0.5,0.8,0,1.4,0
	h13.2c0.6,0,1.1,0.5,1.1,1.1v13.7C15.7,15.5,15.2,16,14.6,16L14.6,16z M2.6,13.4H5V6.2H2.6V13.4L2.6,13.4z M3.8,2.7
	C3,2.7,2.5,3.2,2.5,3.9c0,0.7,0.5,1.2,1.3,1.2h0c0.8,0,1.3-0.6,1.3-1.2C5.1,3.2,4.6,2.7,3.8,2.7L3.8,2.7z M13.4,9.2
	C13.4,7,12.2,6,10.7,6C9.5,6,8.9,6.7,8.6,7.2v-1H6.2c0,0.7,0,7.2,0,7.2h2.3v-4c0-0.2,0-0.4,0.1-0.6c0.2-0.4,0.6-0.9,1.2-0.9
	c0.8,0,1.2,0.7,1.2,1.6v3.9h2.3V9.2L13.4,9.2z"/>
</svg>
