<svg version="1.1" id="Layer_1" xmlns="http://www.w3.org/2000/svg" xmlns:xlink="http://www.w3.org/1999/xlink" x="0px" y="0px"
	 viewBox="0 0 16 16" enable-background="new 0 0 16 16" xml:space="preserve">
<path d="M15.7,8h-2.4v2.5c0,0.2-0.1,0.3-0.3,0.3h-0.7c-0.2,0-0.3-0.2-0.3-0.3V8H9.5C9.3,8,9.2,7.9,9.2,7.7V7c0-0.2,0.2-0.3,0.3-0.3
	h2.4V4.1c0-0.2,0.2-0.3,0.3-0.3h0.7c0.2,0,0.3,0.2,0.3,0.3v2.5h2.4C15.9,6.6,16,6.8,16,7v0.7C16,7.9,15.9,8,15.7,8L15.7,8z M9.4,1.3
	L8.4,2C8.4,2,8.3,2,8.2,2H7.9c0.4,0.5,0.7,1.3,0.7,2.2c0,0.9-0.5,1.9-1.3,2.5c-0.7,0.5-0.7,0.7-0.7,1c0,0.2,0.5,0.7,1,1.1
	c1.2,0.9,1.6,1.7,1.6,3.1c0,1.5-1.1,2.7-2.8,3.2c-0.5,0.2-1.1,0.2-1.7,0.2c-0.7,0-1.3-0.1-1.9-0.2c-1.2-0.3-2.1-0.9-2.5-1.6
	c-0.2-0.3-0.3-0.7-0.3-1c0-0.4,0.1-0.7,0.3-1.1C0.9,9.9,2.6,9,4.5,9c0,0,0,0,0.1,0C4.4,8.7,4.3,8.4,4.3,8.1c0-0.2,0-0.3,0.1-0.5
	c-2,0-3.5-1.5-3.5-3.5c0-1.4,1.1-2.7,2.6-3.3C4,0.7,4.5,0.6,4.9,0.6h4.2c0.1,0,0.3,0.1,0.3,0.2C9.6,1,9.5,1.2,9.4,1.3L9.4,1.3z
	 M2.2,12c0,1.1,1.1,2,2.5,2c1.8,0,2.8-0.6,2.8-1.9c0-0.1,0-0.2,0-0.4c-0.1-0.5-0.6-0.8-1.2-1.3c-0.1-0.1-0.2-0.1-0.3-0.2
	c-0.3-0.1-0.6-0.1-0.9-0.1h0C3.5,10.1,2.2,11,2.2,12L2.2,12z M6.4,4.3C6.2,3,5.3,2,4.4,1.9h0C4,1.9,3.7,2.1,3.5,2.3
	C3.2,2.8,3,3.4,3.1,4.1c0.2,1.3,1.1,2.4,2,2.4h0c0.3,0,0.6-0.1,0.9-0.4C6.3,5.7,6.5,5,6.4,4.3L6.4,4.3z"/>
</svg>
